<svg width="190" height="37" viewBox="0 0 190 37" fill="none" xmlns="http://www.w3.org/2000/svg">
<path d="M0.984 36V2.4H7.416L21.72 26.112H18.312L32.376 2.4H38.76L38.856 36H31.56L31.512 13.584H32.856L21.624 32.448H18.12L6.648 13.584H8.28V36H0.984ZM61.1398 36V30.96L60.6598 29.856V20.832C60.6598 19.232 60.1638 17.984 59.1718 17.088C58.2118 16.192 56.7238 15.744 54.7078 15.744C53.3318 15.744 51.9718 15.968 50.6278 16.416C49.3158 16.832 48.1958 17.408 47.2678 18.144L44.5798 12.912C45.9878 11.92 47.6838 11.152 49.6678 10.608C51.6518 10.064 53.6678 9.792 55.7158 9.792C59.6518 9.792 62.7078 10.72 64.8838 12.576C67.0598 14.432 68.1478 17.328 68.1478 21.264V36H61.1398ZM53.2678 36.384C51.2518 36.384 49.5238 36.048 48.0838 35.376C46.6438 34.672 45.5398 33.728 44.7718 32.544C44.0038 31.36 43.6198 30.032 43.6198 28.56C43.6198 27.024 43.9878 25.68 44.7238 24.528C45.4918 23.376 46.6918 22.48 48.3238 21.84C49.9558 21.168 52.0838 20.832 54.7078 20.832H61.5718V25.2H55.5238C53.7638 25.2 52.5478 25.488 51.8758 26.064C51.2358 26.64 50.9158 27.36 50.9158 28.224C50.9158 29.184 51.2838 29.952 52.0198 30.528C52.7878 31.072 53.8278 31.344 55.1398 31.344C56.3878 31.344 57.5078 31.056 58.4998 30.48C59.4918 29.872 60.2118 28.992 60.6598 27.84L61.8118 31.296C61.2678 32.96 60.2758 34.224 58.8358 35.088C57.3958 35.952 55.5398 36.384 53.2678 36.384ZM73.9248 36V10.176H81.0768V17.472L80.0688 15.36C80.8368 13.536 82.0688 12.16 83.7648 11.232C85.4608 10.272 87.5248 9.792 89.9568 9.792V16.704C89.6368 16.672 89.3488 16.656 89.0928 16.656C88.8368 16.624 88.5648 16.608 88.2768 16.608C86.2288 16.608 84.5648 17.2 83.2848 18.384C82.0368 19.536 81.4128 21.344 81.4128 23.808V36H73.9248ZM105.702 36.384C102.918 36.384 100.438 35.824 98.2616 34.704C96.0856 33.552 94.3736 31.968 93.1256 29.952C91.9096 27.936 91.3016 25.648 91.3016 23.088C91.3016 20.496 91.9096 18.208 93.1256 16.224C94.3736 14.208 96.0856 12.64 98.2616 11.52C100.438 10.368 102.918 9.792 105.702 9.792C108.422 9.792 110.79 10.368 112.806 11.52C114.822 12.64 116.31 14.256 117.27 16.368L111.462 19.488C110.79 18.272 109.942 17.376 108.918 16.8C107.926 16.224 106.838 15.936 105.654 15.936C104.374 15.936 103.222 16.224 102.198 16.8C101.174 17.376 100.358 18.192 99.7496 19.248C99.1736 20.304 98.8856 21.584 98.8856 23.088C98.8856 24.592 99.1736 25.872 99.7496 26.928C100.358 27.984 101.174 28.8 102.198 29.376C103.222 29.952 104.374 30.24 105.654 30.24C106.838 30.24 107.926 29.968 108.918 29.424C109.942 28.848 110.79 27.936 111.462 26.688L117.27 29.856C116.31 31.936 114.822 33.552 112.806 34.704C110.79 35.824 108.422 36.384 105.702 36.384ZM133.069 36.384C130.125 36.384 127.533 35.808 125.293 34.656C123.085 33.504 121.373 31.936 120.157 29.952C118.941 27.936 118.333 25.648 118.333 23.088C118.333 20.496 118.925 18.208 120.109 16.224C121.325 14.208 122.973 12.64 125.053 11.52C127.133 10.368 129.485 9.792 132.109 9.792C134.637 9.792 136.909 10.336 138.925 11.424C140.973 12.48 142.589 14.016 143.773 16.032C144.957 18.016 145.549 20.4 145.549 23.184C145.549 23.472 145.533 23.808 145.501 24.192C145.469 24.544 145.437 24.88 145.405 25.2H124.429V20.832H141.469L138.589 22.128C138.589 20.784 138.317 19.616 137.773 18.624C137.229 17.632 136.477 16.864 135.517 16.32C134.557 15.744 133.437 15.456 132.157 15.456C130.877 15.456 129.741 15.744 128.749 16.32C127.789 16.864 127.037 17.648 126.493 18.672C125.949 19.664 125.677 20.848 125.677 22.224V23.376C125.677 24.784 125.981 26.032 126.589 27.12C127.229 28.176 128.109 28.992 129.229 29.568C130.381 30.112 131.725 30.384 133.261 30.384C134.637 30.384 135.837 30.176 136.861 29.76C137.917 29.344 138.877 28.72 139.741 27.888L143.725 32.208C142.541 33.552 141.053 34.592 139.261 35.328C137.469 36.032 135.405 36.384 133.069 36.384ZM149.534 36V0.383998H157.022V36H149.534ZM175.26 36.384C172.508 36.384 170.06 35.808 167.916 34.656C165.804 33.504 164.124 31.936 162.876 29.952C161.66 27.936 161.052 25.648 161.052 23.088C161.052 20.496 161.66 18.208 162.876 16.224C164.124 14.208 165.804 12.64 167.916 11.52C170.06 10.368 172.508 9.792 175.26 9.792C177.98 9.792 180.412 10.368 182.556 11.52C184.7 12.64 186.38 14.192 187.596 16.176C188.812 18.16 189.42 20.464 189.42 23.088C189.42 25.648 188.812 27.936 187.596 29.952C186.38 31.936 184.7 33.504 182.556 34.656C180.412 35.808 177.98 36.384 175.26 36.384ZM175.26 30.24C176.508 30.24 177.628 29.952 178.62 29.376C179.612 28.8 180.396 27.984 180.972 26.928C181.548 25.84 181.836 24.56 181.836 23.088C181.836 21.584 181.548 20.304 180.972 19.248C180.396 18.192 179.612 17.376 178.62 16.8C177.628 16.224 176.508 15.936 175.26 15.936C174.012 15.936 172.892 16.224 171.9 16.8C170.908 17.376 170.108 18.192 169.5 19.248C168.924 20.304 168.636 21.584 168.636 23.088C168.636 24.56 168.924 25.84 169.5 26.928C170.108 27.984 170.908 28.8 171.9 29.376C172.892 29.952 174.012 30.24 175.26 30.24Z" fill="black"/>
</svg>
